<svg width="143" height="43" viewBox="0 0 143 43" fill="none" xmlns="http://www.w3.org/2000/svg">
<path d="M57.4074 18.7989C57.8896 18.7989 58.2803 18.7558 58.5978 18.6757C58.9091 18.5957 59.1594 18.4849 59.3486 18.3432C59.5379 18.2016 59.6661 18.0415 59.7393 17.8506C59.8126 17.6597 59.8492 17.4504 59.8492 17.2164C59.8492 16.7176 59.6172 16.3051 59.1533 15.9726C58.6893 15.6462 57.8896 15.2891 56.7542 14.9073C56.2597 14.7287 55.7652 14.5317 55.2708 14.3039C54.7763 14.076 54.3368 13.7928 53.94 13.448C53.5493 13.1031 53.2257 12.6844 52.9816 12.198C52.7374 11.7054 52.6092 11.1081 52.6092 10.4061C52.6092 9.70416 52.7374 9.06993 52.9999 8.50344C53.2624 7.93694 53.6347 7.45665 54.1109 7.06257C54.5871 6.66848 55.1731 6.36061 55.8507 6.15125C56.5344 5.93573 57.3036 5.83105 58.1582 5.83105C59.1777 5.83105 60.0567 5.94189 60.7954 6.16356C61.5341 6.38524 62.1445 6.62538 62.6268 6.89016L61.6561 9.59333C61.2349 9.37165 60.7649 9.18077 60.2521 9.00836C59.7393 8.8421 59.1166 8.7559 58.3902 8.7559C57.5783 8.7559 56.9923 8.86673 56.6382 9.09456C56.2841 9.32239 56.101 9.66722 56.101 10.1414C56.101 10.4184 56.1681 10.6524 56.2963 10.8433C56.4245 11.0342 56.6138 11.2066 56.8519 11.3605C57.0899 11.5145 57.3646 11.6561 57.6821 11.7793C57.9934 11.9024 58.3414 12.0317 58.7199 12.161C59.5012 12.4566 60.1849 12.746 60.7649 13.0292C61.3448 13.3125 61.8271 13.645 62.2117 14.0268C62.5963 14.4085 62.8832 14.858 63.0724 15.3691C63.2617 15.8802 63.3532 16.5083 63.3532 17.2349C63.3532 18.6573 62.8587 19.7595 61.8698 20.5415C60.8809 21.3235 59.3914 21.7176 57.4013 21.7176C56.7298 21.7176 56.1315 21.6745 55.5943 21.5944C55.0571 21.5144 54.581 21.4159 54.1658 21.2989C53.7507 21.1819 53.3967 21.0587 53.0975 20.9232C52.7984 20.7939 52.5481 20.6708 52.3467 20.5476L53.3051 17.8198C53.7568 18.0661 54.3124 18.294 54.9716 18.491C55.6431 18.7004 56.449 18.7989 57.4074 18.7989Z" fill="#413E43"/>
<path d="M70.1354 9.54443C71.0938 9.54443 71.8935 9.65527 72.5345 9.87694C73.1754 10.0986 73.6882 10.4127 74.0728 10.819C74.4574 11.2316 74.7321 11.7304 74.8908 12.3153C75.0495 12.9003 75.1289 13.553 75.1289 14.2734V21.0837C74.665 21.1884 74.0179 21.3054 73.1876 21.447C72.3574 21.5886 71.3563 21.6564 70.1781 21.6564C69.4394 21.6564 68.7679 21.5886 68.1636 21.4593C67.5592 21.33 67.0403 21.1083 66.6069 20.8128C66.1674 20.5111 65.8377 20.1231 65.6058 19.6367C65.3738 19.1502 65.2578 18.5591 65.2578 17.8571C65.2578 17.1798 65.3921 16.6133 65.6607 16.1453C65.9293 15.6774 66.2895 15.3018 66.7412 15.0247C67.193 14.7476 67.7057 14.5444 68.2857 14.4212C68.8656 14.2981 69.47 14.2365 70.0926 14.2365C70.5138 14.2365 70.8862 14.255 71.2159 14.2919C71.5455 14.3289 71.808 14.3781 72.0095 14.4335V14.1257C72.0095 13.5715 71.8446 13.122 71.5089 12.7833C71.1731 12.4446 70.5932 12.2784 69.763 12.2784C69.2136 12.2784 68.6642 12.3215 68.127 12.4015C67.5898 12.4816 67.1258 12.5986 66.7351 12.7402L66.32 10.1048C66.5092 10.0432 66.7412 9.98162 67.0281 9.92005C67.3089 9.85231 67.6203 9.79689 67.956 9.74148C68.2918 9.69221 68.6397 9.64295 69.0121 9.61217C69.3845 9.56291 69.7569 9.54443 70.1354 9.54443ZM70.3979 19.1318C70.7153 19.1318 71.0205 19.1256 71.3135 19.1071C71.6066 19.0948 71.8385 19.0702 72.0095 19.0394V16.5579C71.8813 16.5271 71.6859 16.4963 71.4234 16.4717C71.1609 16.4409 70.9229 16.4286 70.7031 16.4286C70.3979 16.4286 70.1109 16.4471 69.8423 16.484C69.5737 16.521 69.3357 16.5887 69.1342 16.6934C68.9267 16.798 68.7679 16.9335 68.652 17.1121C68.536 17.2907 68.4749 17.5062 68.4749 17.7709C68.4749 18.282 68.6458 18.6392 68.9877 18.8362C69.3296 19.0332 69.7996 19.1318 70.3979 19.1318Z" fill="#413E43"/>
<path d="M78.0654 10.2521C78.6148 10.092 79.3291 9.93809 80.202 9.80262C81.075 9.661 81.9907 9.59326 82.9491 9.59326C83.9197 9.59326 84.7316 9.72257 85.3787 9.97503C86.0258 10.2336 86.5386 10.5969 86.9171 11.0649C87.2955 11.5329 87.5641 12.0932 87.7229 12.7336C87.8816 13.3802 87.9609 14.0944 87.9609 14.8888V21.4158H84.7133V15.2829C84.7133 14.2299 84.5729 13.4787 84.2982 13.0415C84.0235 12.6043 83.5046 12.3826 82.7537 12.3826C82.5218 12.3826 82.2715 12.395 82.0151 12.4196C81.7526 12.4442 81.5206 12.4688 81.3192 12.4935V21.4158H78.0715V10.2521H78.0654Z" fill="#413E43"/>
<path d="M104.602 16.2929C104.602 17.0379 104.516 17.746 104.351 18.4049C104.187 19.0638 103.894 19.6426 103.479 20.129C103.063 20.6216 102.508 21.0095 101.8 21.2928C101.098 21.576 100.206 21.7177 99.1321 21.7177C98.1431 21.7177 97.2946 21.5945 96.5865 21.3544C95.8723 21.1142 95.2862 20.831 94.8223 20.5108L95.9516 17.8507C96.3728 18.097 96.8246 18.3187 97.3007 18.5096C97.7769 18.7005 98.3019 18.7928 98.8696 18.7928C99.6998 18.7928 100.292 18.5896 100.658 18.1771C101.018 17.7645 101.202 17.081 101.202 16.1143V6.18213H104.602V16.2929Z" fill="#413E43"/>
<path d="M117.44 21.0219C116.891 21.182 116.176 21.3359 115.303 21.4714C114.43 21.613 113.515 21.6807 112.556 21.6807C111.586 21.6807 110.774 21.5514 110.127 21.2867C109.48 21.0219 108.967 20.6524 108.588 20.1783C108.21 19.7042 107.941 19.1315 107.783 18.4726C107.624 17.8138 107.544 17.0872 107.544 16.299V9.85205H110.792V15.8988C110.792 16.9517 110.932 17.7153 111.207 18.1832C111.482 18.6512 112.001 18.8852 112.752 18.8852C112.984 18.8852 113.234 18.8729 113.49 18.8544C113.753 18.8298 113.985 18.8052 114.186 18.7805V9.85205H117.434V21.0219H117.44Z" fill="#413E43"/>
<path d="M124.607 9.54443C125.565 9.54443 126.365 9.65527 127.006 9.87694C127.647 10.0986 128.159 10.4127 128.544 10.819C128.929 11.2316 129.203 11.7304 129.362 12.3153C129.521 12.9003 129.6 13.553 129.6 14.2734V21.0837C129.136 21.1884 128.489 21.3054 127.659 21.447C126.829 21.5886 125.827 21.6564 124.649 21.6564C123.911 21.6564 123.239 21.5886 122.635 21.4593C122.03 21.33 121.512 21.1083 121.078 20.8128C120.645 20.5111 120.309 20.1231 120.077 19.6367C119.845 19.1502 119.729 18.5591 119.729 17.8571C119.729 17.1798 119.863 16.6133 120.132 16.1453C120.4 15.6774 120.761 15.3018 121.212 15.0247C121.664 14.7476 122.177 14.5444 122.757 14.4212C123.337 14.2981 123.941 14.2365 124.564 14.2365C124.985 14.2365 125.357 14.255 125.687 14.2919C126.017 14.3289 126.279 14.3781 126.481 14.4335V14.1257C126.481 13.5715 126.31 13.122 125.98 12.7833C125.644 12.4446 125.064 12.2784 124.234 12.2784C123.685 12.2784 123.135 12.3215 122.598 12.4015C122.061 12.4816 121.597 12.5986 121.206 12.7402L120.791 10.1048C120.98 10.0432 121.212 9.98162 121.499 9.92005C121.78 9.85231 122.091 9.79689 122.427 9.74148C122.763 9.69221 123.111 9.64295 123.483 9.61217C123.856 9.56291 124.228 9.54443 124.607 9.54443ZM124.869 19.1318C125.186 19.1318 125.492 19.1256 125.785 19.1071C126.078 19.0948 126.31 19.0702 126.481 19.0394V16.5579C126.352 16.5271 126.157 16.4963 125.895 16.4717C125.632 16.4409 125.394 16.4286 125.174 16.4286C124.869 16.4286 124.582 16.4471 124.314 16.484C124.045 16.521 123.807 16.5887 123.605 16.6934C123.404 16.798 123.245 16.9335 123.123 17.1121C123.007 17.2907 122.946 17.5062 122.946 17.7709C122.946 18.282 123.117 18.6392 123.459 18.8362C123.801 19.0332 124.271 19.1318 124.869 19.1318Z" fill="#413E43"/>
<path d="M132.536 10.2521C133.086 10.092 133.8 9.93809 134.673 9.80262C135.546 9.661 136.461 9.59326 137.42 9.59326C138.39 9.59326 139.202 9.72257 139.849 9.97503C140.496 10.2336 141.009 10.5969 141.388 11.0649C141.766 11.5329 142.035 12.0932 142.194 12.7336C142.352 13.3802 142.432 14.0944 142.432 14.8888V21.4158H139.184V15.2829C139.184 14.2299 139.044 13.4787 138.769 13.0415C138.494 12.6043 137.975 12.3826 137.224 12.3826C136.992 12.3826 136.742 12.395 136.486 12.4196C136.223 12.4442 135.991 12.4688 135.79 12.4935V21.4158H132.542V10.2521H132.536Z" fill="#413E43"/>
<path d="M59.9224 32.9738H61.0212V38.0169C60.8137 38.1031 60.4169 38.2139 59.8186 38.3494C59.2204 38.4848 58.4879 38.5526 57.6088 38.5526C56.8762 38.5526 56.1986 38.4233 55.5699 38.1585C54.9472 37.8999 54.4039 37.5181 53.9461 37.0255C53.4882 36.5329 53.128 35.9171 52.8716 35.1844C52.6092 34.4516 52.481 33.608 52.481 32.6659C52.481 31.7177 52.6214 30.8802 52.9022 30.1475C53.183 29.4147 53.5615 28.799 54.0437 28.3064C54.526 27.8138 55.0815 27.432 55.7164 27.1734C56.3513 26.9148 57.0289 26.7793 57.7553 26.7793C58.5855 26.7793 59.2692 26.8717 59.8125 27.0502C60.3497 27.2288 60.7465 27.4012 60.9907 27.5675L60.6183 28.5157C60.3131 28.3002 59.9041 28.1216 59.3913 27.9862C58.8724 27.8507 58.3108 27.783 57.7065 27.783C57.1448 27.783 56.6137 27.8877 56.1193 28.0909C55.6248 28.3002 55.1914 28.6081 54.8251 29.0207C54.4588 29.4332 54.1719 29.9443 53.9583 30.5539C53.7507 31.1635 53.6408 31.8716 53.6408 32.6782C53.6408 33.4295 53.7263 34.1068 53.8972 34.7102C54.0681 35.3137 54.3306 35.8309 54.6847 36.2619C55.0327 36.693 55.4722 37.0193 55.985 37.2472C56.5039 37.475 57.1021 37.592 57.7797 37.592C58.3291 37.592 58.7931 37.5612 59.1594 37.4996C59.5317 37.438 59.782 37.3826 59.9102 37.3272V32.9738H59.9224Z" fill="#413E43"/>
<path d="M70.6483 34.1128C70.6483 34.7779 70.5506 35.3813 70.3675 35.9232C70.1782 36.465 69.9157 36.9268 69.5739 37.3086C69.232 37.6904 68.8352 37.9859 68.3713 38.1953C67.9073 38.4047 67.3946 38.5155 66.8329 38.5155C66.2713 38.5155 65.7585 38.4108 65.2946 38.1953C64.8306 37.9859 64.4277 37.6842 64.092 37.3086C63.7501 36.9268 63.4876 36.465 63.2984 35.9232C63.1091 35.3813 63.0176 34.7779 63.0176 34.1128C63.0176 33.4478 63.1091 32.8444 63.2984 32.3025C63.4876 31.7606 63.7501 31.2927 64.092 30.9047C64.4338 30.5168 64.8306 30.2213 65.2946 30.0057C65.7585 29.7964 66.2713 29.6855 66.8329 29.6855C67.3946 29.6855 67.9073 29.7902 68.3713 30.0057C68.8352 30.2151 69.2381 30.5168 69.5739 30.9047C69.9157 31.2927 70.1782 31.7545 70.3675 32.3025C70.5506 32.8444 70.6483 33.4478 70.6483 34.1128ZM69.5312 34.1128C69.5312 33.0599 69.287 32.2163 68.8047 31.5944C68.3163 30.9663 67.6632 30.6523 66.8329 30.6523C66.0027 30.6523 65.3434 30.9663 64.8612 31.5944C64.3728 32.2225 64.1347 33.0599 64.1347 34.1128C64.1347 35.1658 64.3789 36.0032 64.8612 36.6251C65.3434 37.247 66.0027 37.5549 66.8329 37.5549C67.6632 37.5549 68.3224 37.247 68.8047 36.6251C69.287 36.0032 69.5312 35.1658 69.5312 34.1128Z" fill="#413E43"/>
<path d="M73.9753 30.3939C74.1584 30.2522 74.4514 30.1045 74.8543 29.9444C75.2572 29.7843 75.7334 29.7042 76.2828 29.7042C76.8872 29.7042 77.4244 29.815 77.8944 30.0306C78.3645 30.2461 78.7613 30.554 79.0848 30.948C79.4083 31.3421 79.6525 31.8039 79.8235 32.3458C79.9883 32.8815 80.0737 33.4726 80.0737 34.113C80.0737 34.7965 79.9761 35.4123 79.7746 35.9541C79.5732 36.496 79.2924 36.9578 78.9322 37.3396C78.572 37.7214 78.1386 38.0108 77.638 38.214C77.1374 38.4172 76.5758 38.5157 75.9654 38.5157C75.2206 38.5157 74.604 38.4664 74.1218 38.3679C73.6395 38.2694 73.2366 38.1709 72.9253 38.06V25.8557L73.9753 25.6587V30.3939ZM73.9753 37.3273C74.1401 37.3827 74.3782 37.432 74.6956 37.4812C75.0131 37.5305 75.4343 37.5551 75.9471 37.5551C76.8566 37.5551 77.5831 37.2595 78.1325 36.6623C78.6819 36.0711 78.9566 35.2214 78.9566 34.1069C78.9566 33.6389 78.9078 33.1956 78.8101 32.7768C78.7124 32.3581 78.5537 31.9948 78.34 31.6869C78.1264 31.3791 77.8395 31.1266 77.4915 30.9419C77.1436 30.7572 76.704 30.6648 76.1912 30.6648C75.9409 30.6648 75.7029 30.6894 75.477 30.7387C75.2511 30.7879 75.0375 30.8495 74.8482 30.9234C74.6529 30.9973 74.482 31.0835 74.3416 31.1697C74.195 31.2559 74.073 31.336 73.9753 31.416V37.3273Z" fill="#413E43"/>
<path d="M83.6511 27.3395C83.6511 27.5919 83.5779 27.789 83.4253 27.9367C83.2727 28.0845 83.0895 28.1584 82.8759 28.1584C82.6622 28.1584 82.4791 28.0845 82.3265 27.9367C82.1738 27.789 82.1006 27.5919 82.1006 27.3395C82.1006 27.087 82.1738 26.89 82.3265 26.7422C82.4791 26.5944 82.6622 26.5205 82.8759 26.5205C83.0895 26.5205 83.2727 26.5944 83.4253 26.7422C83.5718 26.8961 83.6511 27.0932 83.6511 27.3395ZM83.407 38.3246H82.357V29.8887H83.407V38.3246Z" fill="#413E43"/>
<path d="M85.6899 34.0944C85.6899 33.3555 85.7937 32.7089 86.0074 32.1609C86.2149 31.6129 86.4958 31.151 86.8315 30.7816C87.1734 30.4121 87.5579 30.1351 87.9975 29.9565C88.437 29.7779 88.8826 29.6855 89.3466 29.6855C90.3721 29.6855 91.1841 30.0242 91.7945 30.6954C92.405 31.3666 92.7102 32.4072 92.7102 33.8111C92.7102 33.8973 92.7041 33.9835 92.698 34.0697C92.6919 34.1559 92.6858 34.236 92.6736 34.316H86.801C86.8315 35.3505 87.0879 36.1448 87.564 36.699C88.0402 37.2532 88.7911 37.5303 89.8288 37.5303C90.4027 37.5303 90.8544 37.4749 91.1902 37.3702C91.5259 37.2594 91.764 37.167 91.9166 37.0931L92.112 38.0044C91.9593 38.0906 91.6785 38.1953 91.2634 38.3123C90.8483 38.4354 90.3599 38.4909 89.7983 38.4909C89.0658 38.4909 88.437 38.38 87.9242 38.1645C87.4053 37.949 86.978 37.6411 86.6484 37.2532C86.3126 36.8591 86.0684 36.3973 85.9219 35.8554C85.7632 35.3259 85.6899 34.7409 85.6899 34.0944ZM91.6236 33.4293C91.5992 32.5488 91.3977 31.8653 91.007 31.3727C90.6163 30.8801 90.0669 30.64 89.3588 30.64C88.9803 30.64 88.6446 30.7139 88.3454 30.8678C88.0463 31.0217 87.7899 31.2249 87.5701 31.4774C87.3504 31.7299 87.1795 32.0316 87.0513 32.3641C86.9292 32.7028 86.8559 33.0537 86.8315 33.4232H91.6236V33.4293Z" fill="#413E43"/>
<path d="M97.8987 29.7227C98.2405 29.7227 98.5702 29.7473 98.8754 29.8027C99.1806 29.8581 99.3943 29.9135 99.5164 29.969L99.3027 30.8803C99.2173 30.8372 99.0402 30.7879 98.7777 30.7387C98.5152 30.6894 98.1673 30.6648 97.7339 30.6648C97.2821 30.6648 96.9159 30.6956 96.6411 30.7633C96.3664 30.831 96.1833 30.8864 96.0978 30.9295V38.3186H95.0479V30.2768C95.3165 30.1537 95.6888 30.0367 96.165 29.9074C96.6411 29.7842 97.2211 29.7227 97.8987 29.7227Z" fill="#413E43"/>
<path d="M101.104 30.1783C101.415 30.0921 101.836 29.9936 102.367 29.8828C102.892 29.7719 103.545 29.7227 104.308 29.7227C104.943 29.7227 105.474 29.815 105.902 29.9997C106.329 30.1845 106.665 30.4492 106.921 30.7941C107.171 31.1389 107.355 31.5453 107.464 32.0256C107.574 32.5059 107.629 33.0293 107.629 33.6081V38.3248H106.579V33.9529C106.579 33.3556 106.537 32.8507 106.457 32.4381C106.378 32.0256 106.244 31.6869 106.054 31.4283C105.865 31.1697 105.615 30.9788 105.31 30.868C105.004 30.751 104.614 30.6956 104.15 30.6956C103.655 30.6956 103.228 30.7202 102.862 30.7756C102.501 30.831 102.263 30.8803 102.16 30.9234V38.3309H101.11V30.1783H101.104Z" fill="#413E43"/>
<path d="M117.44 34.1128C117.44 34.7779 117.342 35.3813 117.159 35.9232C116.97 36.465 116.707 36.9268 116.365 37.3086C116.024 37.6904 115.627 37.9859 115.163 38.1953C114.699 38.4047 114.186 38.5155 113.624 38.5155C113.063 38.5155 112.55 38.4108 112.086 38.1953C111.622 37.9859 111.219 37.6842 110.883 37.3086C110.542 36.9268 110.279 36.465 110.09 35.9232C109.901 35.3813 109.809 34.7779 109.809 34.1128C109.809 33.4478 109.901 32.8444 110.09 32.3025C110.279 31.7606 110.542 31.2927 110.883 30.9047C111.225 30.5168 111.622 30.2213 112.086 30.0057C112.55 29.7964 113.063 29.6855 113.624 29.6855C114.186 29.6855 114.699 29.7902 115.163 30.0057C115.627 30.2151 116.03 30.5168 116.365 30.9047C116.707 31.2927 116.97 31.7545 117.159 32.3025C117.342 32.8444 117.44 33.4478 117.44 34.1128ZM116.323 34.1128C116.323 33.0599 116.078 32.2163 115.596 31.5944C115.114 30.9663 114.455 30.6523 113.624 30.6523C112.794 30.6523 112.135 30.9663 111.653 31.5944C111.164 32.2225 110.926 33.0599 110.926 34.1128C110.926 35.1658 111.17 36.0032 111.653 36.6251C112.135 37.247 112.794 37.5549 113.624 37.5549C114.455 37.5549 115.114 37.247 115.596 36.6251C116.078 36.0032 116.323 35.1658 116.323 34.1128Z" fill="#413E43"/>
<path d="M42.3107 19.6859C42.8662 17.4323 42.6953 15.1109 41.804 12.9434C40.9189 10.7821 39.4171 9.02104 37.4393 7.82031C38.0375 10.1663 37.9337 12.5986 37.1279 14.8954C39.3073 15.9483 41.0898 17.5985 42.3107 19.6859Z" fill="#FED422"/>
<path d="M35.7117 36.0341C36.6152 33.6573 36.664 31.0403 35.846 28.645C33.508 29.464 30.9868 29.544 28.6121 28.8728C29.2836 31.2805 29.2042 33.7989 28.3862 36.1696C30.7609 36.9885 33.3554 36.9454 35.7117 36.0341Z" fill="#FF8300"/>
<path d="M21.311 31.9023C20.0901 34.0944 18.277 35.8186 16.0366 36.9146C17.1354 39.1929 19.0034 41.0094 21.311 42.05C23.6185 41.0155 25.4865 39.1991 26.5853 36.9208C24.3449 35.8247 22.5258 34.1006 21.311 31.9023Z" fill="#FF8300"/>
<path d="M14.0162 28.8542C11.6354 29.5315 9.10201 29.4515 6.77006 28.6387C5.95205 31.034 5.99478 33.6509 6.89826 36.0278C9.25462 36.9391 11.8491 36.9883 14.2237 36.1632C13.4118 33.7926 13.3386 31.2741 14.0162 28.8542Z" fill="#FF8300"/>
<path d="M14.2358 6.83493C11.855 6.00982 9.27891 6.04677 6.91034 6.96424C6.00686 9.34106 5.95802 11.958 6.77604 14.3533C9.1324 13.5282 11.6231 13.4482 14.0099 14.1255C13.3384 11.7179 13.4178 9.2056 14.2358 6.83493Z" fill="#FF8300"/>
<path d="M21.3234 0.948242C19.0159 1.98271 17.1479 3.7992 16.043 6.07749C18.2895 7.17354 20.1025 8.8915 21.3173 11.0774C22.5321 8.8915 24.3452 7.17354 26.5917 6.07749C25.4928 3.80535 23.6248 1.98887 21.3234 0.948242Z" fill="#FF8300"/>
<path d="M35.8521 14.3593C36.6701 11.964 36.6274 9.34699 35.7239 6.97017C33.3737 6.05885 30.767 6.00959 28.3984 6.82855C29.2164 9.20537 29.2958 11.7177 28.6243 14.1253C29.6987 13.8235 30.7914 13.6696 31.8841 13.6696C33.2149 13.6758 34.5579 13.9036 35.8521 14.3593Z" fill="#FF8300"/>
<path d="M6.0314 16.1758C3.7727 17.2903 1.97186 19.1684 0.946289 21.4959C1.97186 23.8235 3.7727 25.7077 6.0314 26.8161C7.11801 24.5562 8.82729 22.7274 10.9944 21.5021C8.82118 20.2767 7.1119 18.4418 6.0314 16.1758Z" fill="#FF8300"/>
<path d="M36.5968 16.1821C35.5102 18.4481 33.8009 20.2831 31.6338 21.5023C33.807 22.7338 35.5102 24.5626 36.5968 26.8224C38.8555 25.714 40.6563 23.8298 41.688 21.5023C40.6563 19.1747 38.8616 17.2966 36.5968 16.1821Z" fill="#FF8300"/>
<path d="M29.8024 0.831171C27.6902 -0.0555187 25.3583 -0.234088 23.124 0.32625C25.1874 1.55776 26.8234 3.35577 27.8612 5.54787C30.1382 4.74123 32.5495 4.63655 34.8814 5.24615C33.7093 3.25109 31.9573 1.73018 29.8024 0.831171Z" fill="#FED422"/>
<path d="M7.74658 5.23378C8.73552 4.97517 9.74278 4.84586 10.75 4.84586C12.1052 4.84586 13.4544 5.07985 14.7607 5.54166C15.8046 3.34957 17.4406 1.55156 19.5162 0.320048C17.2819 -0.24029 14.9561 -0.061721 12.8317 0.831126C10.6829 1.72397 8.93087 3.24489 7.74658 5.23378Z" fill="#FED422"/>
<path d="M5.19511 7.80762C3.22334 9.00218 1.71551 10.7694 0.830347 12.9307C-0.0548154 15.092 -0.231848 17.4134 0.329772 19.6732C1.55679 17.5797 3.33322 15.9356 5.50645 14.8827C4.69454 12.5859 4.59076 10.1536 5.19511 7.80762Z" fill="#FED422"/>
<path d="M5.49419 28.1031C3.32097 27.0501 1.54454 25.3999 0.323623 23.3125C-0.237998 25.5723 -0.0670696 27.8937 0.824198 30.055C1.71546 32.2225 3.21719 33.9836 5.18896 35.1843C4.58461 32.8383 4.68839 30.3999 5.49419 28.1031Z" fill="#FED422"/>
<path d="M7.74072 37.7584C8.92501 39.7473 10.677 41.2682 12.8197 42.161C14.9685 43.06 17.27 43.2324 19.5042 42.6721C17.4348 41.4406 15.8049 39.6426 14.761 37.4443C12.4962 38.2571 10.0605 38.3618 7.74072 37.7584Z" fill="#FED422"/>
<path d="M23.1118 42.6779C25.3461 43.2382 27.6475 43.0658 29.7963 42.1729C31.939 41.2801 33.691 39.7592 34.8814 37.7641C32.5617 38.3676 30.1199 38.2629 27.8612 37.4624C26.8173 39.6483 25.1813 41.4463 23.1118 42.6779Z" fill="#FED422"/>
<path d="M41.7982 30.0672C42.6894 27.8998 42.8604 25.5784 42.3049 23.3247C41.0839 25.4121 39.3014 27.0562 37.1221 28.1091C37.9218 30.3998 38.0194 32.8381 37.4212 35.1903C39.4052 33.9896 40.913 32.2285 41.7982 30.0672Z" fill="#FED422"/>
<path d="M27.1163 7.37061C24.9065 8.46665 23.1423 10.3016 22.1167 12.5676C23.9298 12.7277 25.6146 13.4296 27.0126 14.6057C27.8672 12.272 27.9099 9.7228 27.1163 7.37061Z" fill="#E43D30"/>
<path d="M15.5115 7.37061C14.7179 9.7228 14.7545 12.2782 15.6153 14.6119C17.0132 13.4358 18.6981 12.7338 20.5111 12.5676C19.4856 10.3016 17.7214 8.46665 15.5115 7.37061Z" fill="#E43D30"/>
<path d="M12.4594 20.6895C12.6242 18.8607 13.3201 17.1612 14.4861 15.7511C12.1603 14.8767 9.63297 14.8398 7.30713 15.6403C8.39374 17.8693 10.2129 19.6489 12.4594 20.6895Z" fill="#E43D30"/>
<path d="M7.30713 27.3458C9.63297 28.1401 12.1664 28.1032 14.48 27.2349C13.314 25.8249 12.6242 24.1315 12.4594 22.3027C10.2129 23.3434 8.39374 25.1229 7.30713 27.3458Z" fill="#E43D30"/>
<path d="M15.5055 35.6277C17.7093 34.5317 19.4735 32.6967 20.4991 30.4369C18.686 30.2706 17.0073 29.5687 15.6154 28.3926C14.7608 30.7263 14.7181 33.2755 15.5055 35.6277Z" fill="#E43D30"/>
<path d="M22.1167 30.4371C23.1423 32.6969 24.9065 34.5319 27.1102 35.6279C27.8977 33.2819 27.8611 30.7265 27.0065 28.3989C25.6146 29.575 23.9298 30.277 22.1167 30.4371Z" fill="#E43D30"/>
<path d="M30.1752 22.3149C30.0103 24.1437 29.3144 25.8432 28.1484 27.2472C30.4621 28.1092 32.9894 28.1523 35.3152 27.3518C34.2347 25.1351 32.4155 23.3556 30.1752 22.3149Z" fill="#E43D30"/>
<path d="M28.1484 15.7571C29.3144 17.1672 30.0103 18.8605 30.1752 20.6955C32.4155 19.661 34.2347 17.8815 35.3213 15.6524C32.9955 14.852 30.4743 14.8827 28.1484 15.7571Z" fill="#E43D30"/>
<path d="M21.317 13.9468C17.1903 13.9468 13.8267 17.3334 13.8267 21.5021C13.8267 25.6708 17.1842 29.0574 21.317 29.0574C25.4437 29.0574 28.8073 25.6708 28.8073 21.5021C28.8073 17.3334 25.4437 13.9468 21.317 13.9468Z" fill="#E43D30"/>
</svg>
